<svg width="396" height="24" viewBox="0 0 396 24" fill="none" xmlns="http://www.w3.org/2000/svg">
<g clip-path="url(#clip0_601_2254)">
<g style="mix-blend-mode:hard-light" opacity="0.76" filter="url(#filter0_d_601_2254)">
<path d="M22.861 6.55483C23.3623 5.95654 23.71 5.13997 23.71 4.31531C23.71 4.20212 23.7019 4.08893 23.6776 4C22.8772 4.03234 21.907 4.5336 21.3249 5.21273C20.8722 5.73017 20.4517 6.55483 20.4517 7.37948C20.4517 7.50884 20.4679 7.63012 20.4841 7.67054C20.5326 7.67863 20.6134 7.6948 20.6943 7.6948C21.4219 7.6948 22.3274 7.2097 22.861 6.55483ZM23.4351 7.86458C22.2223 7.86458 21.2441 8.6003 20.6134 8.6003C19.9424 8.6003 19.0692 7.91309 18.0182 7.91309C16.0212 7.91309 14 9.56241 14 12.667C14 14.6074 14.7438 16.6529 15.6736 17.9707C16.4659 19.0864 17.1612 20 18.1556 20C19.1501 20 19.5867 19.3451 20.8075 19.3451C22.0606 19.3451 22.3355 19.9838 23.4351 19.9838C24.5184 19.9838 25.238 18.9894 25.9171 18.0111C26.6852 16.8873 27.0005 15.7959 27.0167 15.7393C26.952 15.7231 24.8742 14.8742 24.8742 12.5053C24.8742 10.4517 26.5073 9.53007 26.5963 9.4573C25.5291 7.91309 23.8878 7.86458 23.4351 7.86458Z" fill="black"/>
</g>
<g style="mix-blend-mode:hard-light" opacity="0.76" filter="url(#filter1_d_601_2254)">
<path d="M52.2129 17H54.2773V13.1172H58.29V11.4834H54.2773V8.83789H58.6729V7.13574H52.2129V17ZM61.0504 8.31836C61.6656 8.31836 62.1715 7.82617 62.1715 7.21094C62.1715 6.58887 61.6656 6.09668 61.0504 6.09668C60.4352 6.09668 59.9225 6.58887 59.9225 7.21094C59.9225 7.82617 60.4352 8.31836 61.0504 8.31836ZM60.0455 17H62.0416V9.47363H60.0455V17ZM63.7014 17H65.6975V12.6455C65.6975 11.627 66.258 10.9639 67.1809 10.9639C68.1242 10.9639 68.5617 11.5244 68.5617 12.584V17H70.5578V12.1328C70.5578 10.335 69.6555 9.30957 67.9807 9.30957C66.9074 9.30957 66.1623 9.82227 65.8205 10.6357H65.6975V9.47363H63.7014V17ZM74.8289 17.1162C75.8885 17.1162 76.6883 16.6445 77.0779 15.8311H77.201V17H79.1971V6.5957H77.201V10.6768H77.0779C76.702 9.85645 75.8611 9.35059 74.8289 9.35059C72.9217 9.35059 71.7732 10.8066 71.7732 13.2266V13.2402C71.7732 15.6465 72.949 17.1162 74.8289 17.1162ZM75.5057 15.4619C74.4529 15.4619 73.8035 14.6279 73.8035 13.2402V13.2266C73.8035 11.8525 74.4529 11.0049 75.5057 11.0049C76.5584 11.0049 77.2215 11.8525 77.2215 13.2334V13.2471C77.2215 14.6279 76.5652 15.4619 75.5057 15.4619ZM84.2201 17.1572C86.4213 17.1572 87.392 15.8857 87.6244 14.9424L87.6381 14.874H85.7787L85.7582 14.915C85.6215 15.2021 85.1361 15.667 84.2611 15.667C83.2016 15.667 82.5385 14.9492 82.518 13.7119H87.6996V13.0898C87.6996 10.8135 86.3324 9.30957 84.1381 9.30957C81.9438 9.30957 80.5424 10.8477 80.5424 13.2402V13.2471C80.5424 15.6602 81.9301 17.1572 84.2201 17.1572ZM84.1723 10.8066C85.0404 10.8066 85.6625 11.3672 85.7855 12.4609H82.5385C82.6615 11.3945 83.3041 10.8066 84.1723 10.8066ZM88.9834 17H90.9795V12.7891C90.9795 11.7227 91.6973 11.0732 92.832 11.0732C93.1396 11.0732 93.4473 11.1211 93.748 11.1895V9.44629C93.5498 9.3916 93.2695 9.35059 93.0029 9.35059C92.0254 9.35059 91.3418 9.8291 91.1025 10.6426H90.9795V9.47363H88.9834V17Z" fill="black"/>
</g>
<g style="mix-blend-mode:hard-light" opacity="0.76" filter="url(#filter2_d_601_2254)">
<path d="M114.254 16.5H115.785V12.3711H120.023V11.0791H115.785V7.95508H120.413V6.63574H114.254V16.5ZM122.654 7.75C123.16 7.75 123.584 7.33301 123.584 6.82715C123.584 6.31445 123.16 5.89746 122.654 5.89746C122.141 5.89746 121.724 6.31445 121.724 6.82715C121.724 7.33301 122.141 7.75 122.654 7.75ZM121.909 16.5H123.385V9.07617H121.909V16.5ZM125.264 16.5H126.747V6.16406H125.264V16.5ZM131.722 16.6436C133.623 16.6436 134.648 15.5498 134.894 14.5723L134.908 14.5107L133.479 14.5176L133.452 14.5723C133.274 14.9551 132.707 15.4268 131.757 15.4268C130.533 15.4268 129.754 14.5996 129.726 13.1777H134.99V12.6582C134.99 10.4297 133.719 8.93262 131.647 8.93262C129.576 8.93262 128.236 10.4844 128.236 12.8018V12.8086C128.236 15.1602 129.549 16.6436 131.722 16.6436ZM131.654 10.1494C132.659 10.1494 133.404 10.792 133.52 12.1182H129.747C129.877 10.8398 130.642 10.1494 131.654 10.1494Z" fill="black"/>
</g>
<g style="mix-blend-mode:hard-light" opacity="0.76" filter="url(#filter3_d_601_2254)">
<path d="M155.254 16.5H161.516V15.1807H156.785V12.1113H161.263V10.8398H156.785V7.95508H161.516V6.63574H155.254V16.5ZM165.917 16.623C166.956 16.623 167.769 16.1445 168.2 15.3311H168.316V16.5H169.793V6.16406H168.316V10.252H168.2C167.803 9.45215 166.935 8.94629 165.917 8.94629C164.03 8.94629 162.84 10.4297 162.84 12.7812V12.7949C162.84 15.126 164.05 16.623 165.917 16.623ZM166.34 15.3584C165.096 15.3584 164.351 14.3877 164.351 12.7949V12.7812C164.351 11.1885 165.096 10.2178 166.34 10.2178C167.571 10.2178 168.337 11.1953 168.337 12.7812V12.7949C168.337 14.3809 167.578 15.3584 166.34 15.3584ZM172.423 7.75C172.929 7.75 173.353 7.33301 173.353 6.82715C173.353 6.31445 172.929 5.89746 172.423 5.89746C171.91 5.89746 171.493 6.31445 171.493 6.82715C171.493 7.33301 171.91 7.75 172.423 7.75ZM171.678 16.5H173.154V9.07617H171.678V16.5ZM177.767 16.5479C178.054 16.5479 178.328 16.5137 178.567 16.4727V15.29C178.362 15.3105 178.232 15.3174 178.007 15.3174C177.275 15.3174 176.974 14.9893 176.974 14.1895V10.2451H178.567V9.07617H176.974V7.20312H175.464V9.07617H174.302V10.2451H175.464V14.5449C175.464 15.9736 176.134 16.5479 177.767 16.5479Z" fill="black"/>
</g>
<g style="mix-blend-mode:hard-light" opacity="0.76" filter="url(#filter4_d_601_2254)">
<path d="M202.009 16.5H203.697L207.211 6.63574H205.55L202.911 14.6543H202.795L200.156 6.63574H198.495L202.009 16.5ZM209.185 7.75C209.691 7.75 210.115 7.33301 210.115 6.82715C210.115 6.31445 209.691 5.89746 209.185 5.89746C208.672 5.89746 208.255 6.31445 208.255 6.82715C208.255 7.33301 208.672 7.75 209.185 7.75ZM208.44 16.5H209.917V9.07617H208.44V16.5ZM214.844 16.6436C216.744 16.6436 217.77 15.5498 218.016 14.5723L218.029 14.5107L216.601 14.5176L216.573 14.5723C216.396 14.9551 215.828 15.4268 214.878 15.4268C213.654 15.4268 212.875 14.5996 212.848 13.1777H218.112V12.6582C218.112 10.4297 216.84 8.93262 214.769 8.93262C212.697 8.93262 211.358 10.4844 211.358 12.8018V12.8086C211.358 15.1602 212.67 16.6436 214.844 16.6436ZM214.776 10.1494C215.78 10.1494 216.526 10.792 216.642 12.1182H212.868C212.998 10.8398 213.764 10.1494 214.776 10.1494ZM220.899 16.5H222.41L223.941 10.9629H224.057L225.596 16.5H227.12L229.164 9.07617H227.694L226.368 14.8047H226.252L224.721 9.07617H223.312L221.781 14.8047H221.672L220.339 9.07617H218.848L220.899 16.5Z" fill="black"/>
</g>
<g style="mix-blend-mode:hard-light" opacity="0.76" filter="url(#filter5_d_601_2254)">
<path d="M253.41 16.7393C255.994 16.7393 257.669 15.1191 257.669 12.6172V11.3936H253.622V12.6309H256.158V12.8496C256.145 14.3672 255.044 15.3857 253.431 15.3857C251.578 15.3857 250.416 13.9229 250.416 11.5645V11.5508C250.416 9.22656 251.571 7.75 253.396 7.75C254.75 7.75 255.693 8.40625 256.049 9.5752L256.069 9.64355H257.601L257.587 9.5752C257.231 7.66797 255.639 6.39648 253.396 6.39648C250.635 6.39648 248.851 8.42676 248.851 11.5576V11.5713C248.851 14.7432 250.614 16.7393 253.41 16.7393ZM262.405 16.6436C264.579 16.6436 265.912 15.1875 265.912 12.7949V12.7812C265.912 10.3887 264.572 8.93262 262.405 8.93262C260.231 8.93262 258.891 10.3955 258.891 12.7812V12.7949C258.891 15.1875 260.224 16.6436 262.405 16.6436ZM262.405 15.4062C261.127 15.4062 260.409 14.4424 260.409 12.7949V12.7812C260.409 11.1338 261.127 10.1699 262.405 10.1699C263.676 10.1699 264.401 11.1338 264.401 12.7812V12.7949C264.401 14.4355 263.676 15.4062 262.405 15.4062Z" fill="black"/>
</g>
<g style="mix-blend-mode:hard-light" opacity="0.76" filter="url(#filter6_d_601_2254)">
<path d="M288.284 16.5H289.733L291.846 9.12402H291.941L294.061 16.5H295.503L298.169 6.63574H296.576L294.771 14.3057H294.676L292.604 6.63574H291.183L289.125 14.3057H289.029L287.218 6.63574H285.625L288.284 16.5ZM300.273 7.75C300.779 7.75 301.203 7.33301 301.203 6.82715C301.203 6.31445 300.779 5.89746 300.273 5.89746C299.76 5.89746 299.343 6.31445 299.343 6.82715C299.343 7.33301 299.76 7.75 300.273 7.75ZM299.528 16.5H301.004V9.07617H299.528V16.5ZM302.815 16.5H304.298V12.1455C304.298 10.9492 304.975 10.2041 306.062 10.2041C307.149 10.2041 307.661 10.8125 307.661 12.043V16.5H309.138V11.6943C309.138 9.92383 308.222 8.93262 306.561 8.93262C305.481 8.93262 304.77 9.41113 304.407 10.2041H304.298V9.07617H302.815V16.5ZM313.566 16.623C314.605 16.623 315.419 16.1445 315.849 15.3311H315.966V16.5H317.442V6.16406H315.966V10.252H315.849C315.453 9.45215 314.585 8.94629 313.566 8.94629C311.679 8.94629 310.49 10.4297 310.49 12.7812V12.7949C310.49 15.126 311.7 16.623 313.566 16.623ZM313.99 15.3584C312.746 15.3584 312.001 14.3877 312.001 12.7949V12.7812C312.001 11.1885 312.746 10.2178 313.99 10.2178C315.221 10.2178 315.986 11.1953 315.986 12.7812V12.7949C315.986 14.3809 315.227 15.3584 313.99 15.3584ZM322.445 16.6436C324.619 16.6436 325.952 15.1875 325.952 12.7949V12.7812C325.952 10.3887 324.612 8.93262 322.445 8.93262C320.271 8.93262 318.931 10.3955 318.931 12.7812V12.7949C318.931 15.1875 320.264 16.6436 322.445 16.6436ZM322.445 15.4062C321.166 15.4062 320.449 14.4424 320.449 12.7949V12.7812C320.449 11.1338 321.166 10.1699 322.445 10.1699C323.716 10.1699 324.441 11.1338 324.441 12.7812V12.7949C324.441 14.4355 323.716 15.4062 322.445 15.4062ZM328.514 16.5H330.024L331.556 10.9629H331.672L333.21 16.5H334.734L336.778 9.07617H335.309L333.982 14.8047H333.866L332.335 9.07617H330.927L329.396 14.8047H329.286L327.953 9.07617H326.463L328.514 16.5Z" fill="black"/>
</g>
<g style="mix-blend-mode:hard-light" opacity="0.76" filter="url(#filter7_d_601_2254)">
<path d="M357.254 16.5H358.785V12.1318H363.851V16.5H365.375V6.63574H363.851V10.8057H358.785V6.63574H357.254V16.5ZM370.446 16.6436C372.346 16.6436 373.372 15.5498 373.618 14.5723L373.631 14.5107L372.203 14.5176L372.175 14.5723C371.998 14.9551 371.43 15.4268 370.48 15.4268C369.256 15.4268 368.477 14.5996 368.45 13.1777H373.713V12.6582C373.713 10.4297 372.442 8.93262 370.371 8.93262C368.299 8.93262 366.96 10.4844 366.96 12.8018V12.8086C366.96 15.1602 368.272 16.6436 370.446 16.6436ZM370.378 10.1494C371.382 10.1494 372.128 10.792 372.244 12.1182H368.47C368.6 10.8398 369.366 10.1494 370.378 10.1494ZM375.196 16.5H376.679V6.16406H375.196V16.5ZM378.537 18.9746H380.02V15.3242H380.13C380.526 16.124 381.394 16.623 382.413 16.623C384.3 16.623 385.489 15.1465 385.489 12.7949V12.7812C385.489 10.4434 384.286 8.94629 382.413 8.94629C381.374 8.94629 380.56 9.43164 380.13 10.2451H380.02V9.07617H378.537V18.9746ZM381.996 15.3584C380.759 15.3584 379.993 14.3809 379.993 12.7949V12.7812C379.993 11.1953 380.759 10.2178 381.996 10.2178C383.233 10.2178 383.978 11.1816 383.978 12.7812V12.7949C383.978 14.3877 383.233 15.3584 381.996 15.3584Z" fill="black"/>
</g>
</g>
<defs>
<filter id="filter0_d_601_2254" x="10" y="2" width="21.0166" height="24" filterUnits="userSpaceOnUse" color-interpolation-filters="sRGB">
<feFlood flood-opacity="0" result="BackgroundImageFix"/>
<feColorMatrix in="SourceAlpha" type="matrix" values="0 0 0 0 0 0 0 0 0 0 0 0 0 0 0 0 0 0 127 0" result="hardAlpha"/>
<feOffset dy="2"/>
<feGaussianBlur stdDeviation="2"/>
<feColorMatrix type="matrix" values="0 0 0 0 0 0 0 0 0 0 0 0 0 0 0 0 0 0 0.15 0"/>
<feBlend mode="normal" in2="BackgroundImageFix" result="effect1_dropShadow_601_2254"/>
<feBlend mode="normal" in="SourceGraphic" in2="effect1_dropShadow_601_2254" result="shape"/>
</filter>
<filter id="filter1_d_601_2254" x="48.2129" y="4.09668" width="49.5352" height="19.0605" filterUnits="userSpaceOnUse" color-interpolation-filters="sRGB">
<feFlood flood-opacity="0" result="BackgroundImageFix"/>
<feColorMatrix in="SourceAlpha" type="matrix" values="0 0 0 0 0 0 0 0 0 0 0 0 0 0 0 0 0 0 127 0" result="hardAlpha"/>
<feOffset dy="2"/>
<feGaussianBlur stdDeviation="2"/>
<feColorMatrix type="matrix" values="0 0 0 0 0 0 0 0 0 0 0 0 0 0 0 0 0 0 0.15 0"/>
<feBlend mode="normal" in2="BackgroundImageFix" result="effect1_dropShadow_601_2254"/>
<feBlend mode="normal" in="SourceGraphic" in2="effect1_dropShadow_601_2254" result="shape"/>
</filter>
<filter id="filter2_d_601_2254" x="110.254" y="3.89746" width="28.7363" height="18.7461" filterUnits="userSpaceOnUse" color-interpolation-filters="sRGB">
<feFlood flood-opacity="0" result="BackgroundImageFix"/>
<feColorMatrix in="SourceAlpha" type="matrix" values="0 0 0 0 0 0 0 0 0 0 0 0 0 0 0 0 0 0 127 0" result="hardAlpha"/>
<feOffset dy="2"/>
<feGaussianBlur stdDeviation="2"/>
<feColorMatrix type="matrix" values="0 0 0 0 0 0 0 0 0 0 0 0 0 0 0 0 0 0 0.15 0"/>
<feBlend mode="normal" in2="BackgroundImageFix" result="effect1_dropShadow_601_2254"/>
<feBlend mode="normal" in="SourceGraphic" in2="effect1_dropShadow_601_2254" result="shape"/>
</filter>
<filter id="filter3_d_601_2254" x="151.254" y="3.89746" width="31.3135" height="18.7256" filterUnits="userSpaceOnUse" color-interpolation-filters="sRGB">
<feFlood flood-opacity="0" result="BackgroundImageFix"/>
<feColorMatrix in="SourceAlpha" type="matrix" values="0 0 0 0 0 0 0 0 0 0 0 0 0 0 0 0 0 0 127 0" result="hardAlpha"/>
<feOffset dy="2"/>
<feGaussianBlur stdDeviation="2"/>
<feColorMatrix type="matrix" values="0 0 0 0 0 0 0 0 0 0 0 0 0 0 0 0 0 0 0.15 0"/>
<feBlend mode="normal" in2="BackgroundImageFix" result="effect1_dropShadow_601_2254"/>
<feBlend mode="normal" in="SourceGraphic" in2="effect1_dropShadow_601_2254" result="shape"/>
</filter>
<filter id="filter4_d_601_2254" x="194.495" y="3.89746" width="38.6689" height="18.7461" filterUnits="userSpaceOnUse" color-interpolation-filters="sRGB">
<feFlood flood-opacity="0" result="BackgroundImageFix"/>
<feColorMatrix in="SourceAlpha" type="matrix" values="0 0 0 0 0 0 0 0 0 0 0 0 0 0 0 0 0 0 127 0" result="hardAlpha"/>
<feOffset dy="2"/>
<feGaussianBlur stdDeviation="2"/>
<feColorMatrix type="matrix" values="0 0 0 0 0 0 0 0 0 0 0 0 0 0 0 0 0 0 0.15 0"/>
<feBlend mode="normal" in2="BackgroundImageFix" result="effect1_dropShadow_601_2254"/>
<feBlend mode="normal" in="SourceGraphic" in2="effect1_dropShadow_601_2254" result="shape"/>
</filter>
<filter id="filter5_d_601_2254" x="244.851" y="4.39648" width="25.061" height="18.3428" filterUnits="userSpaceOnUse" color-interpolation-filters="sRGB">
<feFlood flood-opacity="0" result="BackgroundImageFix"/>
<feColorMatrix in="SourceAlpha" type="matrix" values="0 0 0 0 0 0 0 0 0 0 0 0 0 0 0 0 0 0 127 0" result="hardAlpha"/>
<feOffset dy="2"/>
<feGaussianBlur stdDeviation="2"/>
<feColorMatrix type="matrix" values="0 0 0 0 0 0 0 0 0 0 0 0 0 0 0 0 0 0 0.15 0"/>
<feBlend mode="normal" in2="BackgroundImageFix" result="effect1_dropShadow_601_2254"/>
<feBlend mode="normal" in="SourceGraphic" in2="effect1_dropShadow_601_2254" result="shape"/>
</filter>
<filter id="filter6_d_601_2254" x="281.625" y="3.89746" width="59.1533" height="18.7461" filterUnits="userSpaceOnUse" color-interpolation-filters="sRGB">
<feFlood flood-opacity="0" result="BackgroundImageFix"/>
<feColorMatrix in="SourceAlpha" type="matrix" values="0 0 0 0 0 0 0 0 0 0 0 0 0 0 0 0 0 0 127 0" result="hardAlpha"/>
<feOffset dy="2"/>
<feGaussianBlur stdDeviation="2"/>
<feColorMatrix type="matrix" values="0 0 0 0 0 0 0 0 0 0 0 0 0 0 0 0 0 0 0.15 0"/>
<feBlend mode="normal" in2="BackgroundImageFix" result="effect1_dropShadow_601_2254"/>
<feBlend mode="normal" in="SourceGraphic" in2="effect1_dropShadow_601_2254" result="shape"/>
</filter>
<filter id="filter7_d_601_2254" x="353.254" y="4.16406" width="36.2354" height="20.8105" filterUnits="userSpaceOnUse" color-interpolation-filters="sRGB">
<feFlood flood-opacity="0" result="BackgroundImageFix"/>
<feColorMatrix in="SourceAlpha" type="matrix" values="0 0 0 0 0 0 0 0 0 0 0 0 0 0 0 0 0 0 127 0" result="hardAlpha"/>
<feOffset dy="2"/>
<feGaussianBlur stdDeviation="2"/>
<feColorMatrix type="matrix" values="0 0 0 0 0 0 0 0 0 0 0 0 0 0 0 0 0 0 0.15 0"/>
<feBlend mode="normal" in2="BackgroundImageFix" result="effect1_dropShadow_601_2254"/>
<feBlend mode="normal" in="SourceGraphic" in2="effect1_dropShadow_601_2254" result="shape"/>
</filter>
<clipPath id="clip0_601_2254">
<rect width="395.017" height="24" fill="white"/>
</clipPath>
</defs>
</svg>
