<svg width="130" height="24" viewBox="0 0 130 24" fill="none" xmlns="http://www.w3.org/2000/svg">
<g clip-path="url(#clip0_601_2271)">
<g style="mix-blend-mode:hard-light" opacity="0.76" filter="url(#filter0_d_601_2271)">
<path d="M6.15625 16.8516H18.6328C19.2995 16.8516 19.9089 16.7969 20.4609 16.6875C21.013 16.5781 21.487 16.3255 21.8828 15.9297C22.2839 15.5286 22.5365 15.0547 22.6406 14.5078C22.7448 13.9609 22.7969 13.3516 22.7969 12.6797V10.0391C22.7969 9.3724 22.7448 8.76562 22.6406 8.21875C22.5365 7.67188 22.2839 7.19792 21.8828 6.79688C21.4818 6.40104 21.0052 6.14844 20.4531 6.03906C19.9062 5.92969 19.2995 5.875 18.6328 5.875H6.14062C5.48438 5.875 4.88021 5.92969 4.32812 6.03906C3.78125 6.14844 3.30729 6.40365 2.90625 6.80469C2.51042 7.20052 2.25781 7.67188 2.14844 8.21875C2.04427 8.76562 1.99219 9.36719 1.99219 10.0234V12.6797C1.99219 13.3516 2.04427 13.9609 2.14844 14.5078C2.2526 15.0547 2.50521 15.5286 2.90625 15.9297C3.30729 16.3255 3.78125 16.5781 4.32812 16.6875C4.88021 16.7969 5.48958 16.8516 6.15625 16.8516ZM5.94531 15.5938C5.54427 15.5938 5.14844 15.5547 4.75781 15.4766C4.3724 15.3984 4.0599 15.2422 3.82031 15.0078C3.58594 14.7734 3.43229 14.4635 3.35938 14.0781C3.28646 13.6927 3.25 13.2995 3.25 12.8984V9.85156C3.25 9.4401 3.28646 9.04167 3.35938 8.65625C3.43229 8.26562 3.58594 7.95052 3.82031 7.71094C4.05469 7.47656 4.36719 7.32292 4.75781 7.25C5.15365 7.17188 5.55729 7.13281 5.96875 7.13281H18.8438C19.2448 7.13281 19.638 7.17188 20.0234 7.25C20.4141 7.32292 20.7292 7.47917 20.9688 7.71875C21.2031 7.95312 21.3568 8.26302 21.4297 8.64844C21.5026 9.03385 21.5391 9.42708 21.5391 9.82812V12.8984C21.5391 13.2995 21.5026 13.6927 21.4297 14.0781C21.3568 14.4635 21.2031 14.7734 20.9688 15.0078C20.7292 15.2474 20.4141 15.4062 20.0234 15.4844C19.638 15.5573 19.2448 15.5938 18.8438 15.5938H5.94531ZM23.8594 13.3828C24.0677 13.3672 24.2839 13.276 24.5078 13.1094C24.7318 12.9375 24.9219 12.7031 25.0781 12.4062C25.2344 12.1094 25.3125 11.7604 25.3125 11.3594C25.3125 10.9635 25.2344 10.6172 25.0781 10.3203C24.9219 10.0234 24.7318 9.78906 24.5078 9.61719C24.2839 9.44531 24.0677 9.35417 23.8594 9.34375V13.3828ZM5.63281 14.6016H19.1641C19.4349 14.6016 19.6536 14.5807 19.8203 14.5391C19.987 14.4974 20.1302 14.4193 20.25 14.3047C20.3646 14.1901 20.4427 14.0495 20.4844 13.8828C20.5312 13.7109 20.5547 13.4896 20.5547 13.2188V9.50781C20.5547 9.23698 20.5312 9.01823 20.4844 8.85156C20.4427 8.67969 20.3646 8.53646 20.25 8.42188C20.1302 8.30208 19.987 8.22396 19.8203 8.1875C19.6536 8.14583 19.4349 8.125 19.1641 8.125H5.63281C5.35677 8.125 5.13542 8.14583 4.96875 8.1875C4.80208 8.22396 4.66146 8.30208 4.54688 8.42188C4.43229 8.53646 4.35156 8.67969 4.30469 8.85156C4.26302 9.01823 4.24219 9.23698 4.24219 9.50781V13.2188C4.24219 13.4896 4.26302 13.7109 4.30469 13.8828C4.35156 14.0495 4.43229 14.1901 4.54688 14.3047C4.66667 14.4193 4.80729 14.4974 4.96875 14.5391C5.13542 14.5807 5.35677 14.6016 5.63281 14.6016Z" fill="black"/>
</g>
<g style="mix-blend-mode:hard-light" opacity="0.76" filter="url(#filter1_d_601_2271)">
<path d="M44.3359 18.7266H50.0078C50.6276 18.7266 51.1901 18.5911 51.6953 18.3203C52.2005 18.0547 52.6016 17.6797 52.8984 17.1953C53.2005 16.7161 53.3516 16.1562 53.3516 15.5156C53.3516 14.875 53.2005 14.3151 52.8984 13.8359C52.6016 13.3516 52.2005 12.9766 51.6953 12.7109C51.1901 12.4401 50.6276 12.3047 50.0078 12.3047H44.3359C43.7161 12.3047 43.1536 12.4401 42.6484 12.7109C42.1432 12.9766 41.7396 13.3516 41.4375 13.8359C41.1406 14.3151 40.9922 14.875 40.9922 15.5156C40.9922 16.1562 41.1406 16.7161 41.4375 17.1953C41.7396 17.6797 42.1432 18.0547 42.6484 18.3203C43.1536 18.5911 43.7161 18.7266 44.3359 18.7266ZM50.2109 17.5469C49.8359 17.5417 49.4948 17.4479 49.1875 17.2656C48.8802 17.0833 48.6354 16.8385 48.4531 16.5312C48.276 16.224 48.1875 15.8828 48.1875 15.5078C48.1875 15.138 48.276 14.7995 48.4531 14.4922C48.6354 14.1849 48.8802 13.9401 49.1875 13.7578C49.4948 13.5755 49.8359 13.4844 50.2109 13.4844C50.5859 13.4844 50.9271 13.5755 51.2344 13.7578C51.5469 13.9401 51.7943 14.1849 51.9766 14.4922C52.1589 14.7943 52.2474 15.1302 52.2422 15.5C52.2422 15.875 52.1484 16.2188 51.9609 16.5312C51.7786 16.8438 51.5339 17.0911 51.2266 17.2734C50.9245 17.4557 50.5859 17.5469 50.2109 17.5469ZM44.6562 11.1016H49.6953C50.362 11.1016 50.9714 10.9531 51.5234 10.6562C52.0807 10.3594 52.5234 9.94271 52.8516 9.40625C53.1849 8.86979 53.3516 8.2474 53.3516 7.53906C53.3516 6.83073 53.1849 6.20833 52.8516 5.67188C52.5234 5.13542 52.0807 4.71875 51.5234 4.42188C50.9714 4.125 50.362 3.97656 49.6953 3.97656H44.6562C43.9844 3.97656 43.3698 4.125 42.8125 4.42188C42.2604 4.71875 41.8177 5.13542 41.4844 5.67188C41.1562 6.20833 40.9922 6.83073 40.9922 7.53906C40.9922 8.2474 41.1562 8.86979 41.4844 9.40625C41.8177 9.94271 42.2604 10.3594 42.8125 10.6562C43.3698 10.9531 43.9844 11.1016 44.6562 11.1016ZM44.6562 9.92188C44.2188 9.92188 43.8099 9.82292 43.4297 9.625C43.0547 9.42188 42.75 9.14323 42.5156 8.78906C42.2865 8.42969 42.1719 8.01302 42.1719 7.53906C42.1719 7.0651 42.2865 6.65104 42.5156 6.29688C42.75 5.9375 43.0547 5.65885 43.4297 5.46094C43.8099 5.25781 44.2188 5.15625 44.6562 5.15625H49.6953C50.1276 5.15625 50.5312 5.25781 50.9062 5.46094C51.2865 5.65885 51.5911 5.9375 51.8203 6.29688C52.0547 6.65104 52.1719 7.0651 52.1719 7.53906C52.1719 8.01302 52.0547 8.42969 51.8203 8.78906C51.5911 9.14323 51.2865 9.42188 50.9062 9.625C50.5312 9.82292 50.1276 9.92188 49.6953 9.92188H44.6562ZM44.6562 9.39062C45 9.39583 45.3099 9.3151 45.5859 9.14844C45.8672 8.97656 46.0911 8.75 46.2578 8.46875C46.4297 8.18229 46.5156 7.86719 46.5156 7.52344C46.5208 7.17969 46.4401 6.86979 46.2734 6.59375C46.1068 6.3125 45.8802 6.09115 45.5938 5.92969C45.3125 5.76302 45 5.67969 44.6562 5.67969C44.3125 5.67969 44 5.76302 43.7188 5.92969C43.4375 6.09635 43.2135 6.32031 43.0469 6.60156C42.8854 6.88281 42.8047 7.19271 42.8047 7.53125C42.8047 7.875 42.8854 8.1875 43.0469 8.46875C43.2135 8.75 43.4375 8.97396 43.7188 9.14062C44 9.30729 44.3125 9.39062 44.6562 9.39062Z" fill="black"/>
</g>
<g style="mix-blend-mode:hard-light" opacity="0.76" filter="url(#filter2_d_601_2271)">
<path d="M79.8047 14.5234C80.4505 14.5234 81.0573 14.401 81.625 14.1562C82.1927 13.9115 82.6927 13.5729 83.125 13.1406C83.5573 12.7031 83.8958 12.2005 84.1406 11.6328C84.3906 11.0651 84.5156 10.4583 84.5156 9.8125C84.5156 9.16667 84.3906 8.5599 84.1406 7.99219C83.8958 7.42448 83.5573 6.92448 83.125 6.49219C82.6927 6.0599 82.1927 5.72135 81.625 5.47656C81.0573 5.22656 80.4505 5.10156 79.8047 5.10156C79.1589 5.10156 78.5521 5.22656 77.9844 5.47656C77.4167 5.72135 76.9141 6.0599 76.4766 6.49219C76.0443 6.92448 75.7057 7.42448 75.4609 7.99219C75.2161 8.5599 75.0938 9.16667 75.0938 9.8125C75.0938 10.4583 75.2161 11.0651 75.4609 11.6328C75.7057 12.2005 76.0443 12.7031 76.4766 13.1406C76.9141 13.5729 77.4167 13.9115 77.9844 14.1562C78.5521 14.401 79.1589 14.5234 79.8047 14.5234ZM79.8047 15.8203C78.9766 15.8203 78.2005 15.6641 77.4766 15.3516C76.7526 15.0391 76.1146 14.6068 75.5625 14.0547C75.0104 13.5026 74.5781 12.8646 74.2656 12.1406C73.9531 11.4167 73.7969 10.6406 73.7969 9.8125C73.7969 8.98438 73.9531 8.20833 74.2656 7.48438C74.5781 6.75521 75.0104 6.11719 75.5625 5.57031C76.1146 5.01823 76.7526 4.58594 77.4766 4.27344C78.2057 3.96094 78.9818 3.80469 79.8047 3.80469C80.6328 3.80469 81.4089 3.96094 82.1328 4.27344C82.8568 4.58594 83.4948 5.01823 84.0469 5.57031C84.599 6.1224 85.0312 6.76042 85.3438 7.48438C85.6562 8.20833 85.8125 8.98438 85.8125 9.8125C85.8125 10.6406 85.6562 11.4167 85.3438 12.1406C85.0312 12.8646 84.599 13.5026 84.0469 14.0547C83.4948 14.6068 82.8568 15.0391 82.1328 15.3516C81.4089 15.6641 80.6328 15.8203 79.8047 15.8203ZM87.6406 18.6562C87.5208 18.6562 87.4062 18.6354 87.2969 18.5938C87.1875 18.5521 87.0885 18.487 87 18.3984L82.8516 14.25L84.1328 13.0078L88.2578 17.1406C88.3464 17.224 88.4089 17.3203 88.4453 17.4297C88.487 17.5391 88.5078 17.651 88.5078 17.7656C88.5078 17.9323 88.4688 18.0807 88.3906 18.2109C88.3177 18.3464 88.2161 18.4531 88.0859 18.5312C87.9557 18.6146 87.8073 18.6562 87.6406 18.6562Z" fill="black"/>
</g>
<g style="mix-blend-mode:hard-light" opacity="0.76" filter="url(#filter3_d_601_2271)">
<path d="M115.648 18.4922C115.732 18.4922 115.815 18.4661 115.898 18.4141C115.987 18.362 116.104 18.2656 116.25 18.125L118.078 16.3672C118.141 16.3099 118.174 16.2448 118.18 16.1719C118.19 16.0938 118.169 16.0208 118.117 15.9531C117.872 15.6354 117.531 15.3594 117.094 15.125C116.661 14.8906 116.18 14.7734 115.648 14.7734C115.107 14.7734 114.615 14.8958 114.172 15.1406C113.734 15.3854 113.393 15.6719 113.148 16C113.112 16.0573 113.099 16.1198 113.109 16.1875C113.125 16.25 113.164 16.3099 113.227 16.3672L115.055 18.125C115.195 18.2656 115.31 18.362 115.398 18.4141C115.487 18.4661 115.57 18.4922 115.648 18.4922ZM111.258 14.3906C111.336 14.4688 111.422 14.5052 111.516 14.5C111.609 14.4948 111.695 14.4505 111.773 14.3672C112.221 13.862 112.792 13.4479 113.484 13.125C114.177 12.8021 114.898 12.6432 115.648 12.6484C116.409 12.6432 117.135 12.8073 117.828 13.1406C118.521 13.4688 119.096 13.8854 119.555 14.3906C119.628 14.4688 119.708 14.5078 119.797 14.5078C119.885 14.5026 119.966 14.4609 120.039 14.3828L121.203 13.2344C121.266 13.1719 121.299 13.1042 121.305 13.0312C121.31 12.9531 121.286 12.8802 121.234 12.8125C120.854 12.349 120.378 11.9349 119.805 11.5703C119.232 11.2005 118.591 10.9115 117.883 10.7031C117.174 10.4896 116.43 10.3828 115.648 10.3828C114.867 10.3828 114.122 10.4896 113.414 10.7031C112.711 10.9115 112.073 11.2005 111.5 11.5703C110.927 11.9349 110.451 12.349 110.07 12.8125C110.013 12.8802 109.987 12.9505 109.992 13.0234C109.997 13.0964 110.031 13.1667 110.094 13.2344L111.258 14.3906ZM108.133 11.2578C108.206 11.3359 108.289 11.375 108.383 11.375C108.482 11.3698 108.565 11.3281 108.633 11.25C109.56 10.2708 110.62 9.52865 111.812 9.02344C113.005 8.51302 114.284 8.25781 115.648 8.25781C117.018 8.25781 118.299 8.51302 119.492 9.02344C120.69 9.53385 121.75 10.2786 122.672 11.2578C122.74 11.3255 122.82 11.3594 122.914 11.3594C123.008 11.3594 123.089 11.3203 123.156 11.2422L124.188 10.2031C124.255 10.1406 124.289 10.0703 124.289 9.99219C124.294 9.90885 124.271 9.83594 124.219 9.77344C123.63 9.04948 122.888 8.40365 121.992 7.83594C121.096 7.26302 120.104 6.8151 119.016 6.49219C117.932 6.16406 116.81 6 115.648 6C114.487 6 113.362 6.16406 112.273 6.49219C111.185 6.8151 110.193 7.26302 109.297 7.83594C108.406 8.40365 107.667 9.04948 107.078 9.77344C107.026 9.83594 107 9.90885 107 9.99219C107.005 10.0703 107.039 10.1406 107.102 10.2031L108.133 11.2578Z" fill="black"/>
</g>
</g>
<defs>
<filter id="filter0_d_601_2271" x="-2.00781" y="3.875" width="31.3203" height="18.9766" filterUnits="userSpaceOnUse" color-interpolation-filters="sRGB">
<feFlood flood-opacity="0" result="BackgroundImageFix"/>
<feColorMatrix in="SourceAlpha" type="matrix" values="0 0 0 0 0 0 0 0 0 0 0 0 0 0 0 0 0 0 127 0" result="hardAlpha"/>
<feOffset dy="2"/>
<feGaussianBlur stdDeviation="2"/>
<feColorMatrix type="matrix" values="0 0 0 0 0 0 0 0 0 0 0 0 0 0 0 0 0 0 0.15 0"/>
<feBlend mode="normal" in2="BackgroundImageFix" result="effect1_dropShadow_601_2271"/>
<feBlend mode="normal" in="SourceGraphic" in2="effect1_dropShadow_601_2271" result="shape"/>
</filter>
<filter id="filter1_d_601_2271" x="36.9922" y="1.97656" width="20.3594" height="22.75" filterUnits="userSpaceOnUse" color-interpolation-filters="sRGB">
<feFlood flood-opacity="0" result="BackgroundImageFix"/>
<feColorMatrix in="SourceAlpha" type="matrix" values="0 0 0 0 0 0 0 0 0 0 0 0 0 0 0 0 0 0 127 0" result="hardAlpha"/>
<feOffset dy="2"/>
<feGaussianBlur stdDeviation="2"/>
<feColorMatrix type="matrix" values="0 0 0 0 0 0 0 0 0 0 0 0 0 0 0 0 0 0 0.15 0"/>
<feBlend mode="normal" in2="BackgroundImageFix" result="effect1_dropShadow_601_2271"/>
<feBlend mode="normal" in="SourceGraphic" in2="effect1_dropShadow_601_2271" result="shape"/>
</filter>
<filter id="filter2_d_601_2271" x="69.7969" y="1.80469" width="22.7109" height="22.8516" filterUnits="userSpaceOnUse" color-interpolation-filters="sRGB">
<feFlood flood-opacity="0" result="BackgroundImageFix"/>
<feColorMatrix in="SourceAlpha" type="matrix" values="0 0 0 0 0 0 0 0 0 0 0 0 0 0 0 0 0 0 127 0" result="hardAlpha"/>
<feOffset dy="2"/>
<feGaussianBlur stdDeviation="2"/>
<feColorMatrix type="matrix" values="0 0 0 0 0 0 0 0 0 0 0 0 0 0 0 0 0 0 0.15 0"/>
<feBlend mode="normal" in2="BackgroundImageFix" result="effect1_dropShadow_601_2271"/>
<feBlend mode="normal" in="SourceGraphic" in2="effect1_dropShadow_601_2271" result="shape"/>
</filter>
<filter id="filter3_d_601_2271" x="103" y="4" width="25.29" height="20.4922" filterUnits="userSpaceOnUse" color-interpolation-filters="sRGB">
<feFlood flood-opacity="0" result="BackgroundImageFix"/>
<feColorMatrix in="SourceAlpha" type="matrix" values="0 0 0 0 0 0 0 0 0 0 0 0 0 0 0 0 0 0 127 0" result="hardAlpha"/>
<feOffset dy="2"/>
<feGaussianBlur stdDeviation="2"/>
<feColorMatrix type="matrix" values="0 0 0 0 0 0 0 0 0 0 0 0 0 0 0 0 0 0 0.15 0"/>
<feBlend mode="normal" in2="BackgroundImageFix" result="effect1_dropShadow_601_2271"/>
<feBlend mode="normal" in="SourceGraphic" in2="effect1_dropShadow_601_2271" result="shape"/>
</filter>
<clipPath id="clip0_601_2271">
<rect width="130" height="24" fill="white"/>
</clipPath>
</defs>
</svg>
